<svg xmlns="http://www.w3.org/2000/svg" viewBox="0 0 512 512" fill="none">
  <rect width="512" height="512" rx="128" fill="url(#gradient)"/>
  <defs>
    <linearGradient id="gradient" x1="0%" y1="0%" x2="100%" y2="100%">
      <stop offset="0%" style="stop-color:#6B46C1"/>
      <stop offset="100%" style="stop-color:#003366"/>
    </linearGradient>
  </defs>
  <!-- Bus Icon -->
  <g transform="translate(96, 96) scale(1.25)">
    <path d="M256 96c-66.274 0-120 53.726-120 120v128c0 22.091 17.909 40 40 40h16c0 22.091 17.909 40 40 40s40-17.909 40-40h48c0 22.091 17.909 40 40 40s40-17.909 40-40h16c22.091 0 40-17.909 40-40V216c0-66.274-53.726-120-120-120z" fill="white"/>
    <rect x="168" y="136" width="176" height="64" rx="8" fill="#6B46C1"/>
    <circle cx="192" cy="352" r="24" fill="#003366"/>
    <circle cx="320" cy="352" r="24" fill="#003366"/>
    <rect x="168" y="240" width="48" height="48" rx="4" fill="#6B46C1" opacity="0.8"/>
    <rect x="232" y="240" width="48" height="48" rx="4" fill="#6B46C1" opacity="0.8"/>
    <rect x="296" y="240" width="48" height="48" rx="4" fill="#6B46C1" opacity="0.8"/>
  </g>
  <!-- BLR Text -->
  <text x="256" y="470" font-family="Inter, Arial, sans-serif" font-size="48" font-weight="bold" fill="white" text-anchor="middle">BLR</text>
</svg>
